<svg xmlns="http://www.w3.org/2000/svg" viewBox="0 0 362.83 90.71">
<g><g><path fill="#00cd78" d="M5.83,43.29a6.58,6.58,0,0,0-.45,2.47,6,6,0,0,0,.47,2.41,6.17,6.17,0,0,0,1.3,1.95,6.06,6.06,0,0,0,2,1.29,6.65,6.65,0,0,0,2.47.45,6.26,6.26,0,0,0,2.88-.67,7.31,7.31,0,0,0,2.38-2l3.43,3.37a9.3,9.3,0,0,1-2.4,2.17,11.67,11.67,0,0,1-3.1,1.43,11.42,11.42,0,0,1-3.37.5,12.14,12.14,0,0,1-4.51-.83,11.09,11.09,0,0,1-3.63-2.33A11,11,0,0,1,.87,41.43,10.32,10.32,0,0,1,3.3,38a11.4,11.4,0,0,1,3.64-2.33,12.06,12.06,0,0,1,4.48-.83,11.72,11.72,0,0,1,3.47.52A12.29,12.29,0,0,1,18,36.75,9.48,9.48,0,0,1,20.45,39l-3.53,3.46a7.48,7.48,0,0,0-2.5-2.12,6.52,6.52,0,0,0-3-.7A6.09,6.09,0,0,0,9,40.06a5.87,5.87,0,0,0-3.21,3.23Zm28.71-8.17H29.32V56.39H45.75V51.77H34.54Zm20.93-2.64h3.92l4.26-4.13h-5.5Zm0,23.91H60.7V35.12H55.47Zm30.14-8.93L76,35.12H71V56.39H76V43.57l10,12.82h4.62V35.12H85.61Zm15.25,8.93h5.23V35.12h-5.23Zm21.9-15a5.94,5.94,0,0,1,1.93-1.29,6.14,6.14,0,0,1,2.39-.47,6.48,6.48,0,0,1,3,.7,7.51,7.51,0,0,1,2.51,2.12L136.1,39a9.44,9.44,0,0,0-2.41-2.2,12.35,12.35,0,0,0-3.15-1.44,11.66,11.66,0,0,0-3.46-.52,12,12,0,0,0-4.48.83A11.45,11.45,0,0,0,119,38a10.79,10.79,0,0,0,0,15.58,11.09,11.09,0,0,0,3.63,2.33,12.1,12.1,0,0,0,4.51.83,11.47,11.47,0,0,0,3.37-.5,11.82,11.82,0,0,0,3.1-1.43,9.64,9.64,0,0,0,2.4-2.17l-3.43-3.37a7.34,7.34,0,0,1-2.39,2,6.22,6.22,0,0,1-2.87.67,6.71,6.71,0,0,1-2.48-.45,6.12,6.12,0,0,1-2-1.29A6.06,6.06,0,0,1,121,45.76a6.39,6.39,0,0,1,.46-2.47A5.94,5.94,0,0,1,122.76,41.35Zm43.54,15h-5.65l-2-5.13h-8.29l-2,5.13H143l8.72-21.27h6Zm-9.15-9.3-2.55-6.8L152,47.09Z"/><path fill="#00cd78" d="M331.65,0h-119a31.21,31.21,0,0,0-31.18,31.18V90.71H331.65a31.21,31.21,0,0,0,31.18-31.18V31.18A31.21,31.21,0,0,0,331.65,0Zm25.51,59.53A25.54,25.54,0,0,1,331.65,85H187.09V31.18A25.53,25.53,0,0,1,212.6,5.67h119a25.53,25.53,0,0,1,25.51,25.51ZM252.28,56.69c-.94,7.56-8.5,12.19-24.09,12.19-12.76,0-24.1-6.52-24.08-13.31A2,2,0,0,1,206,53.86H221.1c2.84,0,2.85,3.78,8.52,3.78,2.84,0,4.71-1,4.71-2.84,0-3.78-10.39-3.78-17-4.72-13.23-1.89-13.91-8.71-13.23-14.17.95-7.56,8.51-14.08,24.1-14.08,12.75,0,24.09,6.52,24.07,13.31a2,2,0,0,1-1.87,1.71h-15.1c-2.83,0-2.83-3.77-8.5-3.77-2.87,0-4.74.94-4.74,2.83,0,3.78,10.39,3.77,17,4.72C252.28,42.52,253,51.23,252.28,56.69Zm19.85-20.31V66.61A1.42,1.42,0,0,1,270.71,68H259.37A1.42,1.42,0,0,1,258,66.61V36.38A1.42,1.42,0,0,1,259.37,35h11.34A1.42,1.42,0,0,1,272.13,36.38Zm68-12.29V66.61A1.42,1.42,0,0,1,338.74,68H327.4A1.42,1.42,0,0,1,326,66.61V41.71a.42.42,0,0,0-.82-.13l-8.11,23.58A4.25,4.25,0,0,1,313,68h-8.11a4.25,4.25,0,0,1-4-2.87l-8.1-23.58a.43.43,0,0,0-.83.13v24.9A1.42,1.42,0,0,1,290.55,68H279.21a1.42,1.42,0,0,1-1.42-1.42V24.09a1.42,1.42,0,0,1,1.42-1.41h18.23a4.25,4.25,0,0,1,4,2.87l7.11,20.7a.43.43,0,0,0,.81,0l7.11-20.7a4.25,4.25,0,0,1,4-2.87h18.23A1.42,1.42,0,0,1,340.16,24.09Zm-68-.42v6.09a1.42,1.42,0,0,1-1.42,1.42H259.37A1.42,1.42,0,0,1,258,29.76V23.67a1.43,1.43,0,0,1,1.42-1.42h11.34A1.43,1.43,0,0,1,272.13,23.67Z"/></g></g></svg>